<?xml version="1.0" encoding="utf-8"?>
<!-- Generator: Adobe Illustrator 17.1.0, SVG Export Plug-In . SVG Version: 6.00 Build 0)  -->
<!DOCTYPE svg PUBLIC "-//W3C//DTD SVG 1.1//EN" "http://www.w3.org/Graphics/SVG/1.1/DTD/svg11.dtd">
<svg version="1.1" id="Layer_1" xmlns="http://www.w3.org/2000/svg" xmlns:xlink="http://www.w3.org/1999/xlink" x="0px" y="0px"
	 viewBox="0 0 500 500" enable-background="new 0 0 500 500" xml:space="preserve">
<g>
	<path fill="#FFFFFF" d="M240.729,136.133c5.099-15.692,13.442-15.692,18.541,0l16.805,51.72
		c5.099,15.692,22.771,28.532,39.271,28.532h54.381c16.5,0,19.078,7.935,5.729,17.634l-43.996,31.965
		c-13.349,9.698-20.099,30.473-15,46.165l16.805,51.72c5.099,15.692-1.651,20.597-15,10.898l-43.995-31.965
		c-13.349-9.698-35.192-9.698-48.541,0l-43.995,31.965c-13.349,9.698-20.099,4.794-15-10.898l16.805-51.72
		c5.099-15.692-1.651-36.467-15-46.165l-43.995-31.965c-13.349-9.698-10.771-17.634,5.729-17.634h54.381
		c16.5,0,34.172-12.839,39.271-28.532L240.729,136.133z"/>
</g>
</svg>
