<?xml version="1.0" encoding="utf-8"?>
<!-- Generator: Adobe Illustrator 17.1.0, SVG Export Plug-In . SVG Version: 6.00 Build 0) -->
<!DOCTYPE svg PUBLIC "-//W3C//DTD SVG 1.1//EN" "http://www.w3.org/Graphics/SVG/1.1/DTD/svg11.dtd">
<svg version="1.1" id="Livello_1" xmlns="http://www.w3.org/2000/svg" xmlns:xlink="http://www.w3.org/1999/xlink" x="0px" y="0px"
	 viewBox="0 0 566.929 566.929" enable-background="new 0 0 566.929 566.929" xml:space="preserve">
<path fill="#FFFFFF" d="M344.189,99.363c-0.538-0.099-1.084-0.152-1.655-0.152h-32.951c-0.559,0-1.114,0.053-1.646,0.152
	c-4.481,0.743-8.022,4.472-8.837,9.221h53.908C352.21,103.835,348.653,100.107,344.189,99.363z"/>
<path fill="#FFFFFF" d="M395.27,155.25c0-22.446-18.351-40.829-40.795-40.902c-0.044,0-0.085,0-0.131,0H212.588
	c-0.044,0-0.088,0-0.13,0c-22.444,0.073-40.799,18.457-40.799,40.902v271.546c0,12.394,5.599,23.542,14.38,31.065
	c7.16,6.132,16.434,9.856,26.549,9.856h139.074c0,0,20.994-1.355,29.111-9.871s13.86-15.663,13.86-33.112 M250.725,132.006h65.487
	c2.014,0,3.642,1.628,3.642,3.64c0,2.023-1.628,3.65-3.642,3.65h-65.487c-2.019,0-3.65-1.627-3.65-3.65
	C247.075,133.634,248.706,132.006,250.725,132.006z M283.465,454.073c-11.327-0.033-20.504-9.228-20.504-20.564
	c0-11.337,9.177-20.534,20.504-20.57c11.329,0.035,20.506,9.233,20.506,20.57C303.971,444.845,294.794,454.04,283.465,454.073z
	 M375.553,376.858c0,1.994-0.284,3.93-0.801,5.762h-0.014c-0.989,3.431-2.828,6.581-5.431,9.184
	c-3.02,3.023-6.758,5.025-10.808,5.84c-0.037,0.009-0.076,0.013-0.115,0.022c-0.294,0.059-0.594,0.108-0.891,0.152
	c-0.118,0.018-0.238,0.03-0.356,0.045c-0.226,0.032-0.447,0.062-0.673,0.085c-0.202,0.021-0.405,0.032-0.608,0.045
	c-0.148,0.008-0.294,0.028-0.444,0.033c-0.35,0.022-0.708,0.03-1.071,0.03H212.59c-0.361,0-0.718-0.008-1.072-0.03
	c-0.148-0.005-0.298-0.025-0.444-0.033c-0.201-0.013-0.406-0.025-0.606-0.045c-0.224-0.023-0.449-0.053-0.671-0.085
	c-0.118-0.015-0.239-0.028-0.361-0.045c-0.296-0.044-0.59-0.094-0.887-0.152c-0.036-0.009-0.078-0.013-0.113-0.022
	c-4.05-0.815-7.791-2.817-10.811-5.84c-2.604-2.603-4.442-5.754-5.429-9.184h-0.015c-0.521-1.832-0.804-3.769-0.804-5.762V176.807
	c0-5.609,2.224-10.926,6.25-14.945c3.273-3.274,7.386-5.353,11.828-6.013c0.048-0.009,0.099-0.015,0.15-0.021
	c0.288-0.042,0.58-0.078,0.875-0.109c0.131-0.013,0.273-0.02,0.413-0.034c0.209-0.017,0.419-0.035,0.631-0.047
	c0.327-0.012,0.653-0.019,0.982-0.024c0.026,0,0.055-0.001,0.083-0.001h141.753c0.03,0,0.054,0.001,0.083,0.001
	c0.333,0.005,0.657,0.012,0.984,0.024c0.212,0.012,0.421,0.03,0.63,0.047c0.138,0.015,0.276,0.021,0.415,0.034
	c0.291,0.03,0.58,0.067,0.876,0.109c0.046,0.006,0.096,0.012,0.148,0.021c4.439,0.66,8.558,2.739,11.825,6.013
	c4.03,4.019,6.25,9.336,6.25,14.945v5.103v3.939v77.655v50.463V376.858z"/>
</svg>
