<?xml version="1.0" encoding="utf-8"?>
<!-- Generator: Adobe Illustrator 17.1.0, SVG Export Plug-In . SVG Version: 6.00 Build 0) -->
<!DOCTYPE svg PUBLIC "-//W3C//DTD SVG 1.1//EN" "http://www.w3.org/Graphics/SVG/1.1/DTD/svg11.dtd">
<svg version="1.1" id="Livello_1" xmlns="http://www.w3.org/2000/svg" xmlns:xlink="http://www.w3.org/1999/xlink" x="0px" y="0px"
	 viewBox="0 0 566.929 566.929" enable-background="new 0 0 566.929 566.929" xml:space="preserve">
<path fill="#FFFFFF" d="M345.153,344.858c0,0-1.665,0.336-3.75,1.726c-0.567-3.73-1.24-11.202-1.798-17.652v-11.391
	c1.932-1.938,4.388-4.902,6.059-7.383c1.956-2.904,7.861-22.221,9.457-30.555c1.019,0.204,3.19,2.017,5.635,0.59
	c2.444-1.425,4.44-7.63,6.056-11.794c1.354-3.492,4.889-16.703,5.703-22c0.815-5.296,2.648-12.222,0.581-14.246
	c-1.496-1.464-4.146-4.901-10.654-1.82c1.223-9.777,1.123-39.408-1.753-58.148c-2.874-18.741-14.529-29.876-27.566-41.691
	c-13.038-11.814-37.436-17.11-49.658-17.11s-36.621,5.296-49.657,17.11c-13.038,11.815-24.693,22.95-27.568,41.691
	c-2.875,18.74-2.975,48.371-1.752,58.148c-6.509-3.081-9.158,0.356-10.654,1.82c-2.067,2.024-0.234,8.95,0.58,14.246
	c0.815,5.297,4.35,18.508,5.704,22c1.615,4.163,3.611,10.368,6.055,11.794c2.445,1.427,4.616-0.386,5.635-0.59
	c1.596,8.333,7.501,27.651,9.457,30.555c1.955,2.903,4.99,6.479,6.998,8.283c-0.487,4.425-1.766,21.762-2.736,28.143
	c-2.085-1.39-3.75-1.726-3.75-1.726s-75.55,28.894-88.756,37.56c35.706,43.425,89.838,71.126,150.446,71.126
	c60.607,0.001,114.739-27.7,150.444-71.126C420.703,373.753,345.153,344.858,345.153,344.858z M283.465,311.465
	c-16.383,0-29.774-12.796-30.732-28.938c8.026,7.558,18.837,12.192,30.732,12.192s22.706-4.633,30.732-12.192
	C313.239,298.669,299.847,311.465,283.465,311.465z"/>
</svg>
