<?xml version="1.0" encoding="utf-8"?>
<!-- Generator: Adobe Illustrator 17.1.0, SVG Export Plug-In . SVG Version: 6.00 Build 0) -->
<!DOCTYPE svg PUBLIC "-//W3C//DTD SVG 1.1//EN" "http://www.w3.org/Graphics/SVG/1.1/DTD/svg11.dtd">
<svg version="1.1" id="Livello_1" xmlns="http://www.w3.org/2000/svg" xmlns:xlink="http://www.w3.org/1999/xlink" x="0px" y="0px"
	 viewBox="0 0 566.929 566.929" enable-background="new 0 0 566.929 566.929" xml:space="preserve">
<g>
	<path fill="#FFFFFF" d="M295.592,180.135c-6.72-0.414-7.53-0.401-7.53-0.401c-6.983,0.133-12.361-5.469-11.952-12.439l0.003-0.08
		c0.411-6.971,6.304-12.736,13.096-12.811c0,0,0,0,6.149,0.333c67.404,3.635,131.983,39.231,169.742,101.065
		c22.051,36.125,31.942,76.302,30.887,115.761c-0.155,5.635-0.155,5.635-0.155,5.635c-0.536,6.165-6.687,11.151-13.664,11.066
		l-0.131-0.001c-6.981-0.081-12.172-5.634-11.539-12.347c0,0,0,0,0.13-6.137c0.712-34.365-8.001-69.297-27.198-100.743
		C410.477,215.087,354.342,183.807,295.592,180.135z M400.08,295.5c14.585,23.891,20.867,50.553,19.688,76.606
		c-0.232,5.176-0.232,5.176-0.232,5.176c-0.725,5.629,4.382,10.304,11.363,10.394l0.23-0.005c6.981,0.085,13.25-4.959,13.935-11.195
		c0,0,0,0,0.175-5.721c0.886-30.153-6.625-60.882-23.489-88.487c-28.542-46.738-77.243-73.77-128.162-76.805
		c-6.55-0.385-7.025-0.369-7.025-0.369c-6.979,0.218-13.026,6.105-13.431,13.074l-0.012,0.216
		c-0.409,6.973,4.853,12.388,11.689,12.042c0,0,0,0,6.191,0.312C334.302,232.961,375.827,255.784,400.08,295.5z M356.739,321.968
		c9.134,14.965,13.071,31.663,12.331,47.992c-0.258,5.732-0.258,5.732-0.258,5.732c-1.226,6.175,3.48,11.296,10.464,11.38
		l0.542,0.012c6.985,0.075,13.505-5.194,14.508-11.714c0,0,0,0,0.179-6.009c0.61-20.655-4.55-41.704-16.097-60.619
		c-19.464-31.886-52.622-50.365-87.338-52.577c-6.708-0.421-7.534-0.361-7.534-0.361c-6.967,0.513-12.995,6.627-13.404,13.605
		l-0.034,0.532c-0.402,6.967,4.496,12.028,10.896,11.242c0,0,0,0,5.798,0.185C314.497,282.243,341.248,296.603,356.739,321.968z"/>
	<path fill="#FFFFFF" d="M118.507,412.525h194.83c20.676,0,37.445-14.53,37.445-32.452c0-17.923-16.769-32.452-37.445-32.452
		c-0.808,0-1.602,0.033-2.41,0.078c-0.689-24.989-24.255-45.061-53.255-45.061c-7.246,0-14.148,1.259-20.437,3.524
		c-8.489-20.317-30.947-34.827-57.313-34.827c-33.657,0-60.95,23.653-60.95,52.835c0,1.947,0.134,3.874,0.374,5.775
		c-0.284-0.013-0.554-0.026-0.839-0.026c-26.321,0-47.64,18.494-47.64,41.303C70.867,394.031,92.186,412.525,118.507,412.525z"/>
</g>
</svg>
