<?xml version="1.0" encoding="utf-8"?>
<!-- Generator: Adobe Illustrator 17.1.0, SVG Export Plug-In . SVG Version: 6.00 Build 0) -->
<!DOCTYPE svg PUBLIC "-//W3C//DTD SVG 1.1//EN" "http://www.w3.org/Graphics/SVG/1.1/DTD/svg11.dtd">
<svg version="1.1" id="Livello_1" xmlns="http://www.w3.org/2000/svg" xmlns:xlink="http://www.w3.org/1999/xlink" x="0px" y="0px"
	 viewBox="0 0 566.929 566.929" enable-background="new 0 0 566.929 566.929" xml:space="preserve">
<g>
	<path fill="#FFFFFF" d="M345.153,344.858c0,0-1.665,0.336-3.75,1.726c-0.97-6.38-2.25-23.718-2.736-28.143
		c2.006-1.803,5.042-5.38,6.998-8.283c1.955-2.904,7.861-22.221,9.457-30.555c1.019,0.204,3.19,2.017,5.635,0.59
		c2.444-1.425,4.44-7.63,6.055-11.793c1.354-3.492,4.889-16.703,5.704-22c0.815-5.296,2.648-12.222,0.581-14.246
		c-1.496-1.464-4.146-4.901-10.654-1.82c1.222-9.777,1.122-39.408-1.753-58.148c-2.874-18.741-14.53-29.876-27.566-41.691
		c-13.037-11.814-37.436-17.11-49.658-17.11s-36.621,5.296-49.657,17.11c-13.037,11.815-24.693,22.95-27.568,41.691
		c-2.874,18.74-2.974,48.371-1.752,58.148c-6.509-3.081-9.157,0.356-10.654,1.82c-2.068,2.024-0.234,8.95,0.58,14.246
		c0.816,5.297,4.35,18.508,5.705,22c1.615,4.163,3.611,10.368,6.055,11.793c2.445,1.427,4.616-0.386,5.635-0.59
		c1.596,8.334,7.501,27.651,9.457,30.555c1.955,2.903,4.99,6.479,6.998,8.283c-0.487,4.425-1.766,21.762-2.736,28.143
		c-2.085-1.39-3.75-1.726-3.75-1.726s-75.551,28.894-88.757,37.56c35.705,43.425,89.838,71.126,150.446,71.126
		c60.607,0.001,114.739-27.7,150.444-71.126C420.703,373.753,345.153,344.858,345.153,344.858z M303.164,290.206
		c-1.063,0.391-4.903,1.262-4.903,2.275c0,0.864,3.638,1.625,4.455,2.074c-0.091,0.34-0.195,0.615-0.318,0.815
		c-2.106,3.449-10.161,6.66-11.31,7.809c-0.287,0.765-0.223,1.498-2.871,1.498c-2.647,0-4.753,0-4.753,0s-2.106,0-4.753,0
		c-2.648,0-2.584-0.734-2.871-1.498c-1.149-1.149-9.205-4.36-11.311-7.809c-0.122-0.199-0.226-0.474-0.317-0.815
		c0.818-0.449,4.454-1.21,4.454-2.074c0-1.013-3.839-1.884-4.902-2.275c-0.017-0.577-0.027-1.185-0.03-1.82
		c1.079-0.385,4.932-1.264,4.932-2.287c0-1.005-3.826-1.87-4.875-2.266c0.017-0.692,0.039-1.396,0.061-2.108
		c1.015-0.407,4.813-1.257,4.813-2.243c0-0.934-3.729-1.749-4.661-2.176c0.011-0.327,0-1.489-0.061-2.592h39.04
		c-0.062,1.103-0.074,2.265-0.061,2.592c-0.932,0.427-4.662,1.242-4.662,2.176c0,0.985,3.799,1.836,4.814,2.243
		c0.022,0.711,0.044,1.416,0.061,2.108c-1.049,0.397-4.876,1.261-4.876,2.266c0,1.022,3.854,1.901,4.933,2.287
		C303.191,289.021,303.182,289.63,303.164,290.206z M317.191,226.829c-4.449,7.177-12.262,15.854-12.262,25.616
		c0,1.742-0.323,3.107-0.745,4.339h-41.44c-0.422-1.232-0.745-2.597-0.745-4.339c0-9.761-7.812-18.438-12.262-25.616
		c-4.45-7.176-14.642-24.69-6.604-44.93c8.039-20.24,27.848-27.131,40.139-27.131l0.191,0.76l0.191-0.76
		c12.29,0,32.1,6.89,40.14,27.131C331.833,202.139,321.642,219.653,317.191,226.829z"/>
</g>
</svg>
