<?xml version="1.0" encoding="utf-8"?>
<!-- Generator: Adobe Illustrator 17.1.0, SVG Export Plug-In . SVG Version: 6.00 Build 0)  -->
<!DOCTYPE svg PUBLIC "-//W3C//DTD SVG 1.1//EN" "http://www.w3.org/Graphics/SVG/1.1/DTD/svg11.dtd">
<svg version="1.1" id="Livello_1" xmlns="http://www.w3.org/2000/svg" xmlns:xlink="http://www.w3.org/1999/xlink" x="0px" y="0px"
	 viewBox="0 0 500 500" enable-background="new 0 0 500 500" xml:space="preserve">
<g>
	<g>
		<g>
			<g>
				<path opacity="0.35" fill="#FFFFFF" enable-background="new    " d="M250,253.8l-72.4-56.6c17.8-22.8,43.4-35.3,72.4-35.3V253.8
					z"/>
			</g>
		</g>
		<g>
			<g>
				<path opacity="0.25" fill="#FFFFFF" enable-background="new    " d="M250,253.8l-89.5,20.7c-6.5-28.2-0.7-54.4,17.1-77.2
					L250,253.8z"/>
			</g>
		</g>
		<g>
			<g>
				<path opacity="0.85" fill="#FFFFFF" enable-background="new    " d="M250,253.8l-38.8,83.3c-26.3-12.2-44.2-34.4-50.7-62.6
					L250,253.8z"/>
			</g>
		</g>
		<g>
			<g>
				<path opacity="0.75" fill="#FFFFFF" enable-background="new    " d="M250,253.8l40.3,82.6c-26,12.7-52.8,12.9-79.1,0.7
					L250,253.8z"/>
			</g>
		</g>
		<g>
			<g>
				<path opacity="0.65" fill="#FFFFFF" enable-background="new    " d="M250,253.8l89.9,19.1c-6,28.3-23.6,50.8-49.6,63.5
					L250,253.8z"/>
			</g>
		</g>
		<g>
			<g>
				<path opacity="0.55" fill="#FFFFFF" enable-background="new    " d="M250,253.8l71.4-57.8c18.2,22.5,24.5,48.6,18.5,76.9
					L250,253.8z"/>
			</g>
		</g>
		<g>
			<g>
				<path opacity="0.45" fill="#FFFFFF" enable-background="new    " d="M250,253.8v-91.9c29,0,53.2,11.5,71.4,34.1L250,253.8z"/>
			</g>
		</g>
	</g>
</g>
</svg>
