<?xml version="1.0" encoding="utf-8"?>
<!-- Generator: Adobe Illustrator 17.1.0, SVG Export Plug-In . SVG Version: 6.00 Build 0) -->
<!DOCTYPE svg PUBLIC "-//W3C//DTD SVG 1.1//EN" "http://www.w3.org/Graphics/SVG/1.1/DTD/svg11.dtd">
<svg version="1.1" id="Livello_1" xmlns="http://www.w3.org/2000/svg" xmlns:xlink="http://www.w3.org/1999/xlink" x="0px" y="0px"
	 viewBox="0 0 566.929 566.929" enable-background="new 0 0 566.929 566.929" xml:space="preserve">
<path fill="#FFFFFF" d="M395.03,273.121l27.162-18.601l-0.388-1.727c-0.988-4.442-2.189-8.847-3.565-13.096
	c-1.385-4.248-2.992-8.514-4.812-12.689l-0.692-1.626l-32.916,0.905c-3.491-5.901-7.591-11.527-12.19-16.744l11.064-31.05
	l-1.33-1.174c-6.779-5.985-14.168-11.341-21.945-15.921l-1.523-0.887l-26.099,20.078c-6.29-2.715-12.902-4.857-19.681-6.39
	l-9.31-31.641l-1.764-0.176c-8.996-0.868-18.111-0.868-27.106,0.009l-1.755,0.166l-9.318,31.622
	c-3.408,0.767-6.761,1.681-9.993,2.734c-3.241,1.053-6.492,2.281-9.697,3.657l-26.11-20.116l-1.533,0.905
	c-7.785,4.572-15.165,9.929-21.934,15.922l-1.312,1.164l11.046,31.068c-4.591,5.237-8.672,10.852-12.182,16.736l-32.916-0.905
	l-0.702,1.616c-3.611,8.293-6.438,16.975-8.405,25.767l-0.378,1.736l27.171,18.628c-0.646,6.926-0.646,13.881-0.009,20.715
	l-27.172,18.601l0.388,1.727c0.979,4.434,2.189,8.839,3.575,13.096c1.376,4.258,2.992,8.515,4.793,12.69l0.702,1.626l32.916-0.914
	c3.5,5.911,7.591,11.535,12.19,16.754l-11.055,31.05l1.33,1.173c6.761,5.975,14.149,11.333,21.935,15.922l1.524,0.887l26.1-20.079
	c6.299,2.715,12.902,4.858,19.681,6.391l9.319,31.641l1.764,0.166c8.986,0.877,18.111,0.877,27.097,0l1.755-0.166l9.318-31.614
	c3.399-0.775,6.752-1.69,9.994-2.743c3.25-1.053,6.502-2.281,9.706-3.657l26.11,20.105l1.524-0.896
	c7.785-4.572,15.165-9.928,21.934-15.913l1.321-1.182l-11.056-31.069c4.6-5.227,8.672-10.842,12.182-16.735l32.916,0.915
	l0.702-1.616c3.611-8.285,6.437-16.957,8.405-25.777l0.388-1.727l-27.18-18.628C395.658,286.91,395.668,279.956,395.03,273.121z
	 M302.342,341.612c-32.056,10.409-66.616-7.204-77.025-39.269c-10.409-32.057,7.204-66.617,39.27-77.026
	c32.056-10.408,66.616,7.205,77.025,39.27C352.021,296.644,334.408,331.195,302.342,341.612z"/>
</svg>
