<?xml version="1.0" encoding="utf-8"?>
<!-- Generator: Adobe Illustrator 17.1.0, SVG Export Plug-In . SVG Version: 6.00 Build 0) -->
<!DOCTYPE svg PUBLIC "-//W3C//DTD SVG 1.1//EN" "http://www.w3.org/Graphics/SVG/1.1/DTD/svg11.dtd">
<svg version="1.1" id="Livello_1" xmlns="http://www.w3.org/2000/svg" xmlns:xlink="http://www.w3.org/1999/xlink" x="0px" y="0px"
	 viewBox="0 0 566.929 566.929" enable-background="new 0 0 566.929 566.929" xml:space="preserve">
<g>
	<path fill="#FFFFFF" d="M283.464,353.505c-60.557,0-109.639-13.303-109.639-27.981v43.355c0,0.724,0.108,1.421,0.344,2.126
		c0.579,1.792,1.882,3.566,3.837,5.286c13.085,11.447,55.344,20.559,105.459,20.559c50.133,0,92.392-9.113,105.459-20.559
		c1.954-1.72,3.257-3.493,3.855-5.286c0.217-0.705,0.326-1.402,0.326-2.126v-43.355
		C393.104,340.202,344.022,353.505,283.464,353.505z"/>
	<path fill="#FFFFFF" d="M283.464,289.074c-60.557,0-109.639-13.293-109.639-27.98v43.364c0,0.706,0.108,1.421,0.344,2.117
		c0.579,1.792,1.882,3.556,3.837,5.267c13.085,11.475,55.344,20.587,105.459,20.587c50.133,0,92.392-9.113,105.459-20.587
		c1.954-1.711,3.257-3.475,3.855-5.267c0.217-0.697,0.326-1.411,0.326-2.117v-43.364
		C393.104,275.782,344.022,289.074,283.464,289.074z"/>
	<path fill="#FFFFFF" d="M391.677,200.992v-0.07c0.934-1.376,1.428-2.797,1.428-4.257c0-14.678-49.083-26.586-109.64-26.586
		c-56.669,0-103.287,10.428-109.039,23.796h-0.003v0.007c-0.393,0.915-0.597,1.843-0.597,2.783s0.204,1.863,0.597,2.769v0.03
		c-0.393-0.925-0.597-1.859-0.597-2.799v43.364c0,0.714,0.108,1.421,0.344,2.117c0.579,1.8,1.882,3.566,3.837,5.275
		c13.085,11.457,55.344,20.578,105.459,20.578c50.133,0,92.392-9.121,105.459-20.578c1.954-1.71,3.257-3.475,3.855-5.275
		c0.217-0.697,0.326-1.403,0.326-2.117v-43.364C393.104,198.125,392.611,199.571,391.677,200.992z"/>
</g>
</svg>
