<?xml version="1.0" encoding="utf-8"?>
<!-- Generator: Adobe Illustrator 17.1.0, SVG Export Plug-In . SVG Version: 6.00 Build 0) -->
<!DOCTYPE svg PUBLIC "-//W3C//DTD SVG 1.1//EN" "http://www.w3.org/Graphics/SVG/1.1/DTD/svg11.dtd">
<svg version="1.1" id="Layer_1" xmlns="http://www.w3.org/2000/svg" xmlns:xlink="http://www.w3.org/1999/xlink" x="0px" y="0px"
	 viewBox="0 0 300 300" enable-background="new 0 0 300 300" xml:space="preserve">
<g>
	<path fill="#FFFFFF" d="M261.728,180.417l-25.138-17.204c-2.067-1.415-4.71-1.74-7.059-0.871L92.674,213.026
		c-1.576,0.584-1.837,2.703-0.45,3.652l25.139,17.204c2.067,1.415,4.71,1.741,7.059,0.871l7.456-2.761
		c1.175-0.435,2.496-0.272,3.53,0.436l23.706,16.222c2.067,1.415,4.71,1.74,7.059,0.871l21.935-8.124
		c1.576-0.583,1.837-2.703,0.45-3.652l-23.706-16.222c-0.694-0.475-0.563-1.534,0.225-1.826l96.2-35.627
		C262.854,183.485,263.115,181.366,261.728,180.417z"/>
	<path fill="#FFFFFF" d="M70.468,197.115l114.164-42.28l-15.502-26.851c-0.002-0.002-0.164-0.235-0.651-0.65l-17.267,6.395
		c-1.175,0.435-2.496,0.272-3.53-0.436l-23.706-16.222c-2.067-1.415-4.71-1.74-7.059-0.871l-21.936,8.125
		c-1.576,0.583-1.837,2.703-0.45,3.652l23.705,16.222c0.694,0.475,0.563,1.534-0.225,1.826l-79.288,29.365
		c-1.576,0.583-1.837,2.703-0.45,3.652l25.138,17.204C65.477,197.658,68.12,197.984,70.468,197.115z"/>
	<path fill="#FFFFFF" d="M176.613,117.43c1.413,1.177,2.682,2.535,3.601,4.128l2.265,3.922l14.342,24.84l1.365,2.363
		c0.623,1.079,1.713,1.618,2.803,1.618c1.09,0,2.18-0.54,2.803-1.618l3.645-6.313l1.222-2.115l13.104-22.697
		c0.92-1.593,2.188-2.951,3.601-4.128c8.401-6.993,13.751-17.521,13.751-29.304c0-21.057-17.07-38.126-38.125-38.126
		c-21.056,0-38.126,17.069-38.126,38.126C162.863,99.91,168.213,110.438,176.613,117.43z M200.989,72.027
		c8.889,0,16.098,7.208,16.098,16.099c0,8.891-7.209,16.098-16.098,16.098c-8.89,0-16.098-7.207-16.098-16.098
		C184.89,79.235,192.098,72.027,200.989,72.027z"/>
</g>
</svg>
