<?xml version="1.0" encoding="utf-8"?>
<!-- Generator: Adobe Illustrator 17.1.0, SVG Export Plug-In . SVG Version: 6.00 Build 0) -->
<!DOCTYPE svg PUBLIC "-//W3C//DTD SVG 1.1//EN" "http://www.w3.org/Graphics/SVG/1.1/DTD/svg11.dtd">
<svg version="1.1" id="Layer_1" xmlns="http://www.w3.org/2000/svg" xmlns:xlink="http://www.w3.org/1999/xlink" x="0px" y="0px"
	 viewBox="0 0 300 300" enable-background="new 0 0 300 300" xml:space="preserve">
<path fill="#FFFFFF" d="M224.993,60H75.007c-15.82,0-28.64,12.829-28.64,28.643v79.082c0,15.82,12.819,28.643,28.64,28.643h23.677
	L68.686,240l87.267-43.618l69.04-0.014c15.82,0,28.64-12.823,28.64-28.643V88.643C253.633,72.829,240.813,60,224.993,60z
	 M105.689,141.141c-6.773,0-12.266-5.493-12.266-12.273c0-6.78,5.493-12.28,12.266-12.28c6.784,0,12.273,5.499,12.273,12.28
	C117.962,135.648,112.473,141.141,105.689,141.141z M150.001,141.141c-6.783,0-12.269-5.493-12.269-12.273
	c0-6.78,5.486-12.28,12.269-12.28c6.781,0,12.27,5.499,12.27,12.28C162.271,135.648,156.782,141.141,150.001,141.141z
	 M194.321,141.141c-6.784,0-12.283-5.493-12.283-12.273c0-6.78,5.499-12.28,12.283-12.28c6.766,0,12.266,5.499,12.266,12.28
	C206.587,135.648,201.088,141.141,194.321,141.141z"/>
</svg>
