<?xml version="1.0" encoding="utf-8"?>
<!-- Generator: Adobe Illustrator 17.1.0, SVG Export Plug-In . SVG Version: 6.00 Build 0) -->
<!DOCTYPE svg PUBLIC "-//W3C//DTD SVG 1.1//EN" "http://www.w3.org/Graphics/SVG/1.1/DTD/svg11.dtd">
<svg version="1.1" id="Layer_1" xmlns="http://www.w3.org/2000/svg" xmlns:xlink="http://www.w3.org/1999/xlink" x="0px" y="0px"
	 viewBox="0 0 300 300" enable-background="new 0 0 300 300" xml:space="preserve">
<g>
	<path fill="#FFFFFF" d="M252.128,131.007l-83.142-83.139C163.913,42.795,157.168,40,149.994,40c-7.174,0-13.92,2.795-18.992,7.868
		L47.86,131.007c-10.472,10.473-10.472,27.513,0,37.986l83.142,83.142c5.073,5.075,11.818,7.866,18.992,7.866
		c7.174,0,13.92-2.791,18.993-7.866l83.142-83.142c5.073-5.07,7.866-11.818,7.866-18.993
		C259.994,142.825,257.201,136.079,252.128,131.007z M209.233,136.967c0,0-31.784,24.537-46.095,35.892
		c-0.098,0.083-0.145,0.093-0.253,0.168c-3.746,3.465-4.22,1.78-4.255,0.98c0-0.103,0-0.238,0-0.351c0-0.878,0-1.866,0-2.914
		c0-6.482,0-19.354,0-19.354c-0.441,0-3.41,0-19.722,0v38.437c0,3.117-2.525,5.64-5.64,5.64h-14.454c-3.112,0-5.64-2.523-5.64-5.64
		v-62.666c0-3.116,2.528-5.64,5.64-5.64h0.775v-0.004c0.549,0,2.282,0.001,4.86,0.004h8.819c0.033,0,0.063,0.01,0.095,0.01
		c21.55,0.023,25.058,0.072,25.058,0.072s0-0.167,0-0.381h0.065v-20.268c-0.153-3.477,1.482-3.44,1.978-2.98
		c0.231,0.188,0.474,0.391,0.755,0.617l0.486,0.454c0.527,0.349,1.221,0.858,2.162,1.668c0.341,0.271,0.692,0.55,1.071,0.84
		c14.022,11.162,44.294,34.548,44.294,34.548c0.075,0.07,0.188,0.207,0.188,0.438S209.308,136.913,209.233,136.967z"/>
</g>
</svg>
