<?xml version="1.0" encoding="utf-8"?>
<!-- Generator: Adobe Illustrator 17.1.0, SVG Export Plug-In . SVG Version: 6.00 Build 0) -->
<!DOCTYPE svg PUBLIC "-//W3C//DTD SVG 1.1//EN" "http://www.w3.org/Graphics/SVG/1.1/DTD/svg11.dtd">
<svg version="1.1" id="Layer_1" xmlns="http://www.w3.org/2000/svg" xmlns:xlink="http://www.w3.org/1999/xlink" x="0px" y="0px"
	 viewBox="0 0 300 300" enable-background="new 0 0 300 300" xml:space="preserve">
<g>
	<path fill="#FFFFFF" d="M269.185,68.782H67.632c-3.21,0-5.815,2.606-5.815,5.815c0,3.21,2.605,5.815,5.815,5.815H263.37v110.099
		c0,3.21,2.605,5.815,5.815,5.815c3.21,0,5.815-2.606,5.815-5.815V74.597C275,71.388,272.394,68.782,269.185,68.782z"/>
	<path fill="#FFFFFF" d="M252.394,84.283H50.835c-3.21,0-5.815,2.606-5.815,5.815c0,3.209,2.606,5.815,5.815,5.815h195.744v110.106
		c0,3.209,2.606,5.815,5.815,5.815c3.21,0,5.815-2.606,5.815-5.815V90.098C258.209,86.888,255.603,84.283,252.394,84.283z"/>
	<path fill="#FFFFFF" d="M234.306,99.79H32.753c-4.283,0-7.753,3.47-7.753,7.753v115.921c0,4.283,3.47,7.753,7.753,7.753h201.553
		c4.278,0,7.753-3.47,7.753-7.753V107.543C242.06,103.26,238.584,99.79,234.306,99.79z M226.553,215.711H40.507V115.297h186.046
		V215.711z"/>
	<path fill="#FFFFFF" d="M131.808,178.011c-4.118,0-7.874-1.329-10.543-2.796l-1.894,7.429c2.415,1.334,6.533,2.535,10.791,2.733
		v6.025h6.279v-6.54c7.302-1.201,11.236-6.025,11.236-11.675c0-5.771-2.981-9.266-10.537-11.935
		c-5.453-1.971-7.684-3.368-7.684-5.396c0-1.786,1.341-3.623,5.472-3.623c4.557,0,7.544,1.468,9.139,2.224l1.9-7.175
		c-2.224-1.011-5.078-1.964-9.266-2.097v-5.58h-6.228v6.025c-6.794,1.264-10.728,5.649-10.728,11.3
		c0,6.158,4.633,9.342,11.427,11.624c4.76,1.583,6.807,3.108,6.807,5.523C137.979,176.556,135.488,178.011,131.808,178.011z"/>
	<path fill="#FFFFFF" d="M188.275,174.783c5.116,0,9.272-4.163,9.272-9.285c0-5.116-4.157-9.272-9.272-9.272
		c-5.116,0-9.279,4.157-9.279,9.272C178.996,170.62,183.159,174.783,188.275,174.783z"/>
	<path fill="#FFFFFF" d="M78.772,174.783c5.116,0,9.279-4.163,9.279-9.285c0-5.116-4.162-9.272-9.279-9.272
		c-5.116,0-9.279,4.157-9.279,9.272C69.494,170.62,73.657,174.783,78.772,174.783z"/>
	<path fill="#FFFFFF" d="M48.915,197.986c5.225-0.718,10.283,3.724,10.283,9.158c0,0.013-0.07,0.674-0.07,0.693
		c-0.032,0.642,0.196,1.271,0.642,1.735c0.445,0.463,1.061,0.731,1.703,0.731h144.114c0.648,0,1.233-0.579,1.678-1.055
		c0.445-0.484,0.635-1.43,0.584-2.079c0-5.116,4.163-9.279,9.285-9.279c0.343,0,0.68,0.051,1.366,0.146
		c0.68,0.089,1.348-0.121,1.85-0.572c0.508-0.445,0.795-1.087,0.795-1.76v-60.407c0-0.687-0.299-1.335-0.813-1.78
		c-0.521-0.444-1.227-0.654-1.881-0.54c-5.377,0.782-10.601-3.578-10.601-9.114l-2.262-0.146l2.338-0.508
		c0.051-0.649-0.178-1.291-0.623-1.767c-0.444-0.477-1.067-0.75-1.715-0.75H61.473c-0.642,0-1.22,0.61-1.665,1.074
		c-0.445,0.464-0.642,1.436-0.61,2.078c0,5.561-5.275,9.914-10.588,9.132c-0.668-0.114-1.36,0.096-1.881,0.54
		c-0.521,0.445-0.82,1.093-0.82,1.78v60.407c0,0.68,0.464,1.303,0.972,1.748C47.396,197.897,48.235,198.075,48.915,197.986z
		 M188.275,151.522c7.703,0,13.969,6.273,13.969,13.976c0,7.709-6.266,13.988-13.969,13.988c-7.709,0-13.976-6.279-13.976-13.988
		C174.299,157.795,180.566,151.522,188.275,151.522z M133.517,131.91c18.57,0,33.601,15.043,33.601,33.588
		c0,18.57-15.031,33.601-33.601,33.601c-18.551,0-33.588-15.031-33.588-33.601C99.93,146.953,114.966,131.91,133.517,131.91z
		 M78.772,151.522c7.709,0,13.976,6.273,13.976,13.976c0,7.709-6.267,13.988-13.976,13.988c-7.708,0-13.975-6.279-13.975-13.988
		C64.798,157.795,71.064,151.522,78.772,151.522z"/>
</g>
</svg>
