<?xml version="1.0" encoding="utf-8"?>
<!-- Generator: Adobe Illustrator 17.1.0, SVG Export Plug-In . SVG Version: 6.00 Build 0) -->
<!DOCTYPE svg PUBLIC "-//W3C//DTD SVG 1.1//EN" "http://www.w3.org/Graphics/SVG/1.1/DTD/svg11.dtd">
<svg version="1.1" id="Layer_1" xmlns="http://www.w3.org/2000/svg" xmlns:xlink="http://www.w3.org/1999/xlink" x="0px" y="0px"
	 viewBox="0 0 300 300" enable-background="new 0 0 300 300" xml:space="preserve">
<g>
	<path fill="#FFFFFF" d="M190.451,149.369l-1.418-3.356l-1.025-2.382l-1.44-3.387c-2.682-6.292-8.364-10.102-13.799-9.766
		l-0.241,0.028c-0.431,0.04-0.852,0.101-1.277,0.191l-0.443,0.094c-0.469,0.124-0.947,0.276-1.41,0.471l-0.062,0.017l-4.012,1.713
		l-0.05,0.031c-0.465,0.194-0.898,0.446-1.318,0.698l-0.379,0.258c-0.353,0.241-0.691,0.499-1.009,0.783l-0.186,0.164
		c-3.987,3.685-5.176,10.43-2.488,16.715l1.457,3.387l1.02,2.386l5.945,14.091l4.914,11.667l-0.073,0.073l0.008,0.007
		l-33.813,33.814c-0.945,0.944-1.99,1.796-3.112,2.532c-0.483,0.316-0.998,0.621-1.55,0.914c-0.165,0.089-0.336,0.173-0.555,0.276
		c-0.363,0.178-0.73,0.351-1.078,0.495c-0.212,0.087-0.426,0.17-0.641,0.247c-0.06,0.023-0.12,0.041-0.18,0.064
		c-2.165,0.829-4.486,1.266-6.873,1.264c-4.948,0.003-9.61-1.867-13.185-5.268c-0.081-0.074-0.163-0.146-0.242-0.223l-0.095-0.081
		l-16.016-16.016l0.008-0.008l1.376-3.043c3.078-6.81,1.595-14.937-3.692-20.225c-4.076-4.077-9.84-5.879-15.389-5.084
		l-0.002,53.058c0.001,8.171,5.222,14.792,11.657,14.786l67.192,0.007l0.207-0.018c3.367-0.028,6.562-1.047,9.065-3.684l36.478-38.9
		l0.051-0.097c3.233-3.836,4.032-9.994,1.573-15.759L190.451,149.369z"/>
	<path fill="#FFFFFF" d="M156.051,245.979H90.256c-6.319,0-11.436,6.504-11.441,14.511c-0.005,8.017,5.121,14.512,11.442,14.511
		l65.783-0.002c6.331,0.013,11.452-6.487,11.446-14.492C167.492,252.488,162.372,245.98,156.051,245.979z"/>
	<path fill="#FFFFFF" d="M242.323,86.751l-13.628-13.628c-8.433,3.81-18.697,2.255-25.628-4.676
		c-6.93-6.929-8.484-17.194-4.674-25.626l-13.627-13.629c0,0-0.002-0.001-0.003-0.002c-2.789-2.79-6.474-4.193-10.13-4.19
		c-3.658-0.003-7.345,1.402-10.133,4.193l-7.977,7.976c0.132,0.105,0.261,0.216,0.383,0.338c1.726,1.726,1.726,4.523,0,6.25
		c-1.727,1.725-4.524,1.725-6.249-0.001c-0.122-0.121-0.234-0.252-0.338-0.382l-92.642,92.642c-2.79,2.789-4.195,6.476-4.191,10.133
		c-0.004,3.657,1.4,7.344,4.191,10.133l13.628,13.628c8.432-3.811,18.697-2.257,25.628,4.674c6.931,6.93,8.486,17.196,4.674,25.629
		l13.631,13.63c2.789,2.789,6.475,4.192,10.131,4.189c3.658,0.003,7.344-1.402,10.133-4.192l31.89-31.889l-3.598-8.542
		l-5.942-14.087l0.009,0.022l-1.02-2.386l-1.453-3.376c-1.671-3.905-2.222-8.062-1.6-12.031c0.634-4.043,2.503-7.674,5.265-10.227
		l0.039-0.036l0.04-0.036l0.178-0.157c-0.003,0.003-0.006,0.006-0.01,0.008l0.018-0.015l-0.008,0.007
		c0.455-0.406,0.946-0.788,1.496-1.164l0.391-0.266l0.115-0.079l0.121-0.072c0.475-0.285,0.989-0.581,1.568-0.849l0.083-0.051
		l0.313-0.132l4.011-1.715l0.311-0.133l0.109-0.03c0.542-0.212,1.112-0.395,1.733-0.559l0.111-0.029l0.112-0.023l0.444-0.094
		l0.005-0.001l0.007-0.003c0.583-0.124,1.166-0.212,1.778-0.27l0.191-0.022l0.13-0.015l0.13-0.008
		c4.921-0.305,9.962,1.742,13.836,5.614c2.014,2.015,3.622,4.413,4.779,7.124l1.441,3.392l-0.009-0.021l1.026,2.383l0.006,0.015
		l0.007,0.016l1.418,3.357l2.051,4.859l31.122-31.121c-0.132-0.104-0.261-0.216-0.382-0.337c-1.726-1.727-1.726-4.525,0-6.25
		c1.726-1.726,4.524-1.726,6.249,0c0.122,0.122,0.233,0.249,0.338,0.382l7.977-7.977c2.79-2.788,4.195-6.475,4.192-10.133
		C246.519,93.227,245.114,89.54,242.323,86.751z M182.607,63.208c1.725,1.726,1.725,4.523,0,6.25c-1.726,1.725-4.523,1.725-6.249,0
		c-1.726-1.727-1.726-4.524,0-6.25C178.083,61.482,180.88,61.482,182.607,63.208z M174.038,54.641c1.726,1.725,1.727,4.524,0,6.249
		c-1.725,1.725-4.523,1.725-6.249-0.001c-1.726-1.725-1.726-4.523,0-6.248C169.516,52.915,172.313,52.915,174.038,54.641z
		 M159.222,46.073c1.726-1.726,4.524-1.726,6.25,0c1.726,1.727,1.726,4.525,0,6.251c-1.726,1.725-4.524,1.725-6.249,0
		C157.496,50.597,157.496,47.799,159.222,46.073z M138.514,194.467c-1.072,1.071-2.808,1.072-3.879,0L77.1,136.933
		c-1.071-1.072-1.071-2.808,0-3.88c1.071-1.07,2.808-1.07,3.879,0l57.535,57.535C139.585,191.66,139.585,193.396,138.514,194.467z
		 M146.783,186.197c-1.071,1.072-2.808,1.072-3.879,0L85.37,128.664c-1.071-1.072-1.072-2.808,0-3.879
		c1.071-1.071,2.808-1.071,3.879,0l57.534,57.534C147.855,183.39,147.855,185.127,146.783,186.197z M155.053,174.05
		c1.071,1.072,1.07,2.807,0,3.878c-1.072,1.071-2.807,1.071-3.879,0l-57.534-57.534c-1.071-1.071-1.071-2.808,0-3.878
		c1.071-1.071,2.808-1.071,3.879,0L155.053,174.05z M182.77,91.264l-6.141,22.911c-0.506,1.891-2.054,2.306-3.44,0.92l-4.659-4.659
		l-10.726,10.726c-2.058,2.056-5.392,2.057-7.449,0c-1.03-1.03-1.543-2.378-1.543-3.726c-0.002-1.346,0.514-2.696,1.542-3.724
		l10.725-10.726l-4.661-4.661c-1.384-1.385-0.969-2.933,0.921-3.438l22.91-6.141C182.142,88.241,183.274,89.373,182.77,91.264z
		 M184.924,78.025c-1.726-1.725-1.726-4.524,0-6.25c1.726-1.726,4.524-1.726,6.25,0c1.726,1.726,1.726,4.525,0,6.25
		C189.448,79.751,186.65,79.751,184.924,78.025z M193.491,86.592c-1.726-1.726-1.726-4.524,0-6.249c1.726-1.726,4.524-1.726,6.25,0
		c1.726,1.725,1.726,4.523,0,6.249C198.016,88.318,195.217,88.317,193.491,86.592z M202.059,95.159c-1.725-1.725-1.725-4.523,0-6.25
		c1.726-1.725,4.524-1.725,6.25,0c1.725,1.726,1.725,4.524,0,6.25C206.583,96.885,203.784,96.885,202.059,95.159z M210.626,103.727
		c-1.726-1.726-1.726-4.525-0.001-6.25c1.726-1.725,4.524-1.725,6.25,0c1.726,1.725,1.726,4.524,0,6.25
		C215.15,105.452,212.351,105.452,210.626,103.727z M225.443,112.294c-1.726,1.725-4.525,1.725-6.25,0
		c-1.725-1.726-1.725-4.524,0-6.249c1.726-1.727,4.524-1.727,6.25,0C227.169,107.77,227.169,110.568,225.443,112.294z"/>
</g>
</svg>
